<svg width="24" height="24" viewBox="0 0 24 24" fill="none" xmlns="http://www.w3.org/2000/svg">
<path d="M19.1158 5.63477C19.9515 6.4705 20.6145 7.46266 21.0668 8.5546C21.5191 9.64653 21.7519 10.8168 21.7519 11.9987C21.7519 13.1806 21.5191 14.351 21.0668 15.4429C20.6145 16.5349 19.9515 17.527 19.1158 18.3627M16.4648 8.28677C17.4492 9.27131 18.0022 10.6065 18.0022 11.9987C18.0022 13.391 17.4492 14.7262 16.4648 15.7107" stroke="white" stroke-width="2" stroke-linecap="round" stroke-linejoin="round"/>
<path d="M13.5334 3.97775V20.0223C13.5334 20.9047 12.9141 21.2553 12.1576 20.8012L6.88694 17.6388C6.13044 17.1848 4.78912 16.8134 3.90668 16.8134H3.10445C2.222 16.8134 1.5 16.0913 1.5 15.2089V8.7911C1.5 7.90865 2.222 7.18665 3.10445 7.18665H3.90668C4.78912 7.18665 6.13044 6.81522 6.88694 6.36116L12.1576 3.19879C12.9141 2.74473 13.5334 3.0953 13.5334 3.97775Z" fill="white"/>
</svg>
