<svg width="24" height="24" viewBox="0 0 24 24" fill="none" xmlns="http://www.w3.org/2000/svg">
<path d="M13.5334 3.97775V20.0223C13.5334 20.9047 12.9141 21.2553 12.1576 20.8012L6.88694 17.6388C6.13044 17.1848 4.78912 16.8134 3.90668 16.8134H3.10445C2.222 16.8134 1.5 16.0913 1.5 15.2089V8.7911C1.5 7.90865 2.222 7.18665 3.10445 7.18665H3.90668C4.78912 7.18665 6.13044 6.81522 6.88694 6.36116L12.1576 3.19879C12.9141 2.74473 13.5334 3.0953 13.5334 3.97775Z" fill="white"/>
<path d="M16.75 9.25L19.5 12M19.5 12L22.25 14.75M19.5 12L22.25 9.25M19.5 12L16.75 14.75" stroke="white" stroke-width="2" stroke-linecap="round" stroke-linejoin="round"/>
</svg>
