<svg width="24" height="24" viewBox="0 0 24 24" fill="none" xmlns="http://www.w3.org/2000/svg">
<path d="M16.75 9.25L19.5 12M19.5 12L22.25 14.75M19.5 12L22.25 9.25M19.5 12L16.75 14.75" stroke="white" stroke-width="1.83333" stroke-linecap="round" stroke-linejoin="round"/>
<path fill-rule="evenodd" clip-rule="evenodd" d="M13.1818 3.74908C13.1818 3.55029 13.0841 3.36499 12.919 3.25378C12.755 3.14259 12.545 3.11901 12.3608 3.19313L5.79056 5.81895C3.74314 6.63658 2.3999 8.61885 2.3999 10.8246V13.4437C2.3999 15.6483 3.74202 17.6304 5.78941 18.4493L12.3606 21.0773C12.5447 21.1515 12.7536 21.129 12.9187 21.0167C13.0838 20.9055 13.1815 20.7202 13.1815 20.5214L13.1818 3.74908Z" fill="white"/>
</svg>
