<svg width="28" height="28" viewBox="0 0 28 28" fill="none" xmlns="http://www.w3.org/2000/svg">
<g clip-path="url(#clip0_655_256)">
<path d="M28 0H0V28H28V0Z" fill="white"/>
<path d="M22.05 9.42656H19.67C19.2966 9.42656 18.9 9.19323 18.6666 8.7499L17.08 6.0199C16.8233 5.57656 16.3333 5.22656 15.7266 5.22656H10.01C7.46664 5.22656 4.96997 7.3499 4.96997 10.1966V17.1032H9.70664V11.0132C9.70664 10.4299 10.1966 9.84656 10.7566 9.84656H17.36C17.9433 9.84656 18.41 10.3366 18.41 10.9666V17.5232C18.41 18.1066 17.92 18.5732 17.36 18.5732H11.0833V23.3332H15.7733C16.3333 23.3332 16.87 23.0299 17.1266 22.5866L18.62 19.9732C18.8533 19.4832 19.2033 19.1332 19.7166 19.1332H22.05C22.6333 19.1332 23.1233 18.6432 23.1233 18.1066V10.5699C23.1233 9.9399 22.6333 9.42656 22.05 9.42656Z" fill="black"/>
</g>
<defs>
<clipPath id="clip0_655_256">
<rect width="28" height="28" rx="6" fill="white"/>
</clipPath>
</defs>
</svg>
