<svg width="28" height="28" viewBox="0 0 28 28" fill="none" xmlns="http://www.w3.org/2000/svg">
<g clip-path="url(#clip0_655_240)">
<path d="M22 0H6C2.68629 0 0 2.68629 0 6V22C0 25.3137 2.68629 28 6 28H22C25.3137 28 28 25.3137 28 22V6C28 2.68629 25.3137 0 22 0Z" fill="#0F2E65"/>
<mask id="mask0_655_240" style="mask-type:luminance" maskUnits="userSpaceOnUse" x="7" y="4" width="14" height="18">
<path d="M20.6209 4.90234H7.46094V21.9932H20.6209V4.90234Z" fill="white"/>
</mask>
<g mask="url(#mask0_655_240)">
<path d="M17.8995 21.9931H16.3673C16.1374 21.9931 15.9486 21.888 15.8862 21.6351L14.0404 15.1371L12.1946 21.6368C12.1322 21.8897 11.9433 21.9948 11.7135 21.9948H10.1813C9.93003 21.9948 9.78219 21.8897 9.70015 21.6368C8.71315 18.8954 8.04319 16.1711 7.47663 13.4297C7.41424 13.1537 7.53901 12.9648 7.83126 12.9648H9.19597C9.44721 12.9648 9.6147 13.0913 9.65913 13.3229C10.0138 15.2653 10.4359 17.2666 11.0025 19.2321L12.6381 13.3229C12.7005 13.0913 12.868 12.9648 13.1192 12.9648H14.965C15.2162 12.9648 15.3837 13.0913 15.4461 13.3229L17.0817 19.2321C17.6483 17.2718 18.0704 15.2653 18.4251 13.3229C18.4661 13.0913 18.6353 12.9648 18.8882 12.9648H20.2529C20.5452 12.9648 20.6717 13.1554 20.6076 13.4297C20.041 16.172 19.371 18.8954 18.3849 21.6368C18.2994 21.8897 18.1533 21.9931 17.9021 21.9931H17.8995Z" fill="white"/>
<path d="M10.6687 8.38974C11.5703 7.48649 12.7684 6.99085 14.0442 6.98914C15.3183 6.98914 16.5155 7.48478 17.4145 8.38462C17.8828 8.85291 18.24 9.40067 18.4767 9.99714C18.5306 10.1347 18.6656 10.2253 18.8134 10.2253H20.255C20.496 10.2253 20.6738 9.99373 20.6045 9.76385C20.2824 8.69653 19.7013 7.71978 18.892 6.90882C17.5974 5.61674 15.8763 4.90234 14.0459 4.90234C12.2155 4.90234 10.4901 5.61674 9.19465 6.91394C8.38369 7.72491 7.80345 8.70165 7.48385 9.76556C7.41463 9.99543 7.59238 10.227 7.83336 10.227H9.27498C9.42281 10.227 9.55698 10.1364 9.61167 9.99885C9.84667 9.40323 10.203 8.85633 10.6687 8.38974Z" fill="#FB5B05"/>
</g>
</g>
<defs>
<clipPath id="clip0_655_240">
<rect width="28" height="28" fill="white"/>
</clipPath>
</defs>
</svg>
