<svg width="24" height="24" viewBox="0 0 24 24" fill="none" xmlns="http://www.w3.org/2000/svg">
<path d="M11.9948 0.601562C10.4627 0.601562 8.94562 0.90333 7.53015 1.48963C6.11469 2.07594 4.82856 2.9353 3.74521 4.01865C1.55729 6.20657 0.328125 9.17404 0.328125 12.2682C0.328125 17.4249 3.67646 21.7999 8.30812 23.3516C8.89146 23.4449 9.07812 23.0832 9.07812 22.7682C9.07812 22.4999 9.07812 21.7649 9.07812 20.7966C5.84646 21.4966 5.15812 19.2332 5.15812 19.2332C4.62146 17.8799 3.86313 17.5182 3.86313 17.5182C2.80146 16.7949 3.94479 16.8182 3.94479 16.8182C5.11146 16.8999 5.72979 18.0199 5.72979 18.0199C6.74479 19.7932 8.45979 19.2682 9.12479 18.9882C9.22979 18.2299 9.53312 17.7166 9.85979 17.4249C7.26979 17.1332 4.55146 16.1299 4.55146 11.6849C4.55146 10.3899 4.99479 9.35156 5.75312 8.52323C5.63646 8.23156 5.22812 7.01823 5.86979 5.44323C5.86979 5.44323 6.84979 5.12823 9.07812 6.63323C9.99979 6.37656 11.0031 6.24823 11.9948 6.24823C12.9865 6.24823 13.9898 6.37656 14.9115 6.63323C17.1398 5.12823 18.1198 5.44323 18.1198 5.44323C18.7615 7.01823 18.3531 8.23156 18.2365 8.52323C18.9948 9.35156 19.4381 10.3899 19.4381 11.6849C19.4381 16.1416 16.7081 17.1216 14.1065 17.4132C14.5265 17.7749 14.9115 18.4866 14.9115 19.5716C14.9115 21.1349 14.9115 22.3949 14.9115 22.7682C14.9115 23.0832 15.0981 23.4566 15.6931 23.3516C20.3248 21.7882 23.6615 17.4249 23.6615 12.2682C23.6615 10.7361 23.3597 9.21905 22.7734 7.80359C22.1871 6.38812 21.3277 5.102 20.2444 4.01865C19.161 2.9353 17.8749 2.07594 16.4594 1.48963C15.044 0.90333 13.5269 0.601563 11.9948 0.601562V0.601562Z" fill="white"/>
</svg>
