<svg width="24" height="24" viewBox="0 0 24 24" fill="none" xmlns="http://www.w3.org/2000/svg">
<path d="M15.0332 1.5C17.6468 1.5 18.9539 1.50015 19.9521 2.00879C20.8301 2.45617 21.5438 3.16993 21.9912 4.04785C22.4998 5.04611 22.5 6.35322 22.5 8.9668V15.0332C22.5 17.6468 22.4998 18.9539 21.9912 19.9521C21.5438 20.8301 20.8301 21.5438 19.9521 21.9912C18.9539 22.4998 17.6468 22.5 15.0332 22.5H8.9668C6.35322 22.5 5.04611 22.4998 4.04785 21.9912C3.16993 21.5438 2.45617 20.8301 2.00879 19.9521C1.50015 18.9539 1.5 17.6468 1.5 15.0332V8.9668C1.5 6.35322 1.50015 5.04611 2.00879 4.04785C2.45617 3.16993 3.16993 2.45617 4.04785 2.00879C5.04611 1.50015 6.35322 1.5 8.9668 1.5H15.0332ZM5.53125 9.7959V18.6846H8.33789V9.7959H5.53125ZM15.3555 9.5625C14.8282 9.54308 14.3054 9.6673 13.8438 9.92285C13.3821 10.1784 12.9988 10.5555 12.7354 11.0127H12.6885V9.7959H10.0693V18.6846H12.8291V14.2871C12.8291 13.1176 13.0166 11.9951 14.4668 11.9951C15.9168 11.9953 15.917 13.3048 15.917 14.334V18.6846H18.6768V13.8193C18.6767 11.3866 18.1624 9.56251 15.3555 9.5625ZM6.93457 5.35156C6.51271 5.35156 6.10787 5.51908 5.80957 5.81738C5.51127 6.11569 5.34375 6.52052 5.34375 6.94238C5.34362 7.36861 5.50965 7.77826 5.80664 8.08398C6.10367 8.38971 6.50849 8.5679 6.93457 8.58008C7.36062 8.56786 7.76551 8.38971 8.0625 8.08398C8.35942 7.77827 8.52552 7.36856 8.52539 6.94238C8.52539 6.5206 8.35776 6.11567 8.05957 5.81738C7.76131 5.51912 7.35637 5.35161 6.93457 5.35156Z" fill="white"/>
</svg>
