<svg width="24" height="24" viewBox="0 0 24 24" fill="none" xmlns="http://www.w3.org/2000/svg">
<path d="M15.0332 3C17.6468 3 18.9539 3.00015 19.9521 3.50879C20.8301 3.95617 21.5438 4.66993 21.9912 5.54785C22.4998 6.54611 22.5 7.85322 22.5 10.4668V13.5332C22.5 16.1468 22.4998 17.4539 21.9912 18.4521C21.5438 19.3301 20.8301 20.0438 19.9521 20.4912C18.9539 20.9998 17.6468 21 15.0332 21H8.9668C6.35322 21 5.04611 20.9998 4.04785 20.4912C3.16993 20.0438 2.45617 19.3301 2.00879 18.4521C1.50015 17.4539 1.5 16.1468 1.5 13.5332V10.4668C1.5 7.85322 1.50015 6.54611 2.00879 5.54785C2.45617 4.66993 3.16993 3.95617 4.04785 3.50879C5.04611 3.00015 6.35322 3 8.9668 3H15.0332ZM19.2344 6.82129C18.8597 6.4159 18.227 6.39116 17.8213 6.76562L12.6787 11.5127C12.2956 11.8663 11.7044 11.8663 11.3213 11.5127L6.17871 6.76562C5.77304 6.39116 5.14028 6.4159 4.76562 6.82129C4.39116 7.22696 4.4159 7.85972 4.82129 8.23438L9.96484 12.9824C11.114 14.0432 12.886 14.0432 14.0352 12.9824L19.1787 8.23438C19.5841 7.85972 19.6088 7.22696 19.2344 6.82129Z" fill="white"/>
</svg>
